<svg xmlns="http://www.w3.org/2000/svg" x="0px" y="0px"
width="16" height="16"
viewBox="0 0 172 172"
style=" fill:#000000;"><g fill="none" fill-rule="nonzero" stroke="none" stroke-width="1" stroke-linecap="butt" stroke-linejoin="miter" stroke-miterlimit="10" stroke-dasharray="" stroke-dashoffset="0" font-family="none" font-weight="none" font-size="none" text-anchor="none" style="mix-blend-mode: normal"><path d="M0,172v-172h172v172z" fill="none"></path><g fill="#ffffff"><path d="M140.2875,4.3c-1.54531,0.215 -3.07719,0.90031 -4.3,1.935l-96.6425,84.065l46.5475,46.5475l84.065,-96.75c2.80844,-3.30562 2.71438,-8.23719 -0.3225,-11.2875l-22.2525,-22.2525c-1.8275,-1.8275 -4.52844,-2.62031 -7.095,-2.2575zM34.2925,94.9225l-11.61,11.61c-3.73562,3.74906 -2.33812,8.22375 -1.29,11.5025l0.645,2.0425c1.47813,4.82406 3.1175,10.14531 -1.72,16.555l19.2425,19.35c2.78156,-1.935 5.88563,-2.9025 9.3525,-2.9025c2.88906,0 5.49594,0.61813 7.2025,1.075l0.86,0.3225c0.61813,0.14781 1.23625,0.25531 1.8275,0.43c1.6125,0.47031 3.27875,0.9675 5.0525,0.9675c2.24406,0 4.23281,-0.79281 5.805,-2.365l11.61,-11.61zM15.5875,141.685l-14.62,14.62c-0.86,0.86 -1.15563,2.0425 -0.86,3.225c0.29563,1.1825 1.19594,2.12313 2.365,2.4725l21.6075,6.45c0.3225,0.09406 0.645,0.1075 0.9675,0.1075c0.90031,0 1.81406,-0.30906 2.4725,-0.9675l6.9875,-6.9875z"></path></g></g></svg>